<?xml version="1.0" encoding="utf-8" standalone="no"?><!DOCTYPE svg PUBLIC "-//W3C//DTD SVG 1.1//EN" "http://www.w3.org/Graphics/SVG/1.1/DTD/svg11.dtd">
<svg preserveAspectRatio="xMinYMin meet" width="100%" height="100%" viewBox="0 0 825.000 650.000"  version="1.1" xmlns="http://www.w3.org/2000/svg" xmlns:xlink="http://www.w3.org/1999/xlink">
  <desc>Matlab Figure Converted by PLOT2SVG written by Juerg Schwizer</desc>
  <g id="topgroup">
  <rect x="0" y="0" width="825.000" height="650.000" fill="#ffffff" stroke="none" />
  <g id ="ID000000">
  <clipPath id="ID000001">
    <rect x="107.250" y="48.750" width="639.375" height="529.750"/>
  </clipPath>
      <polygon fill="#ffffff" fill-opacity="1.00" stroke="none" stroke-width="0.5pt" stroke-opacity="1.00" stroke-dasharray="none" points="107.250,578.500 746.625,578.500 746.625,48.750 107.250,48.750 "/>
      <polygon fill="#ffffff" fill-opacity="1.00" stroke="none" stroke-width="0.5pt" stroke-opacity="1.00" stroke-dasharray="none" points="107.250,48.750 746.625,48.750 746.625,48.750 107.250,48.750 "/>
      <polygon fill="#ffffff" fill-opacity="1.00" stroke="none" stroke-width="0.5pt" stroke-opacity="1.00" stroke-dasharray="none" points="107.250,578.500 107.250,578.500 107.250,48.750 107.250,48.750 "/>
    <g>
<g id="ID000002" clip-path="url(#ID000001)" >
      <polyline fill="none" stroke="#000000" stroke-width="2.0pt" stroke-dasharray="none" points="107.250,578.500 120.038,567.905 132.825,557.310 145.612,546.715 158.400,536.120 171.188,525.525 183.975,514.930 196.763,504.335 209.550,493.740 222.337,483.145 235.125,472.550 247.912,461.955 260.700,451.360 273.488,440.765 286.275,430.170 299.062,419.575 311.850,408.980 324.637,398.385 337.425,387.790 350.213,377.195 363.000,366.600 375.788,356.005 388.575,345.410 401.363,334.815 414.150,329.517 426.938,329.517 439.725,329.517 452.512,329.517 465.300,329.517 478.087,329.517 490.875,329.517 503.663,329.517 516.450,329.517 529.238,329.517 542.025,329.517 554.812,329.517 567.600,329.517 580.388,329.517 593.175,329.517 605.963,329.517 618.750,329.517 631.537,329.517 644.325,329.517 657.112,329.517 669.900,329.517 682.688,329.517 695.475,329.517 708.262,329.517 721.050,329.517 733.837,329.517 746.625,329.517 759.413,329.517 772.200,329.517 784.988,329.517 797.775,329.517 810.563,329.517 823.350,329.517 836.138,329.517 848.925,329.517 861.712,329.517 874.500,329.517 887.287,329.517 900.075,329.517 912.863,329.517 925.650,329.517 938.438,329.517 951.225,329.517 964.013,329.517 976.800,329.517 989.587,329.517 1002.375,329.517 1015.163,329.517 1027.950,329.517 1040.737,329.517 1053.525,329.517 1066.312,329.517 1079.100,329.517 1091.888,329.517 1104.675,329.517 1117.463,329.517 1130.250,329.517 1143.037,329.517 1155.825,329.517 1168.613,329.517 1181.400,329.517 1194.187,324.220 1206.975,324.220 1219.763,324.220 1232.550,324.220 "/>
<g>
</g>
</g>
<g id="ID000003" clip-path="url(#ID000001)" >
      <polyline fill="none" stroke="#000000" stroke-width="2.0pt" stroke-dasharray="8.0,2.0" points="107.250,578.500 120.038,567.905 132.825,557.310 145.612,546.715 158.400,536.120 171.188,525.525 183.975,514.930 196.763,504.335 209.550,493.740 222.337,483.145 235.125,472.550 247.912,461.955 260.700,451.360 273.488,440.765 286.275,430.170 299.062,419.575 311.850,408.980 324.637,398.385 337.425,387.790 350.213,377.195 363.000,366.600 375.788,356.005 388.575,345.410 401.363,334.815 414.150,324.220 426.938,324.220 439.725,324.220 452.512,324.220 465.300,324.220 478.087,324.220 490.875,324.220 503.663,324.220 516.450,324.220 529.238,324.220 542.025,324.220 554.812,324.220 567.600,324.220 580.388,324.220 593.175,324.220 605.963,324.220 618.750,324.220 631.537,324.220 644.325,324.220 657.112,324.220 669.900,324.220 682.688,324.220 695.475,324.220 708.262,324.220 721.050,324.220 733.837,324.220 746.625,324.220 759.413,324.220 772.200,324.220 784.988,324.220 797.775,324.220 810.563,324.220 823.350,324.220 836.138,324.220 848.925,324.220 861.712,324.220 874.500,324.220 887.287,324.220 900.075,324.220 912.863,324.220 925.650,324.220 938.438,324.220 951.225,324.220 964.013,324.220 976.800,324.220 989.587,324.220 1002.375,324.220 1015.163,324.220 1027.950,324.220 1040.737,324.220 1053.525,324.220 1066.312,324.220 1079.100,324.220 1091.888,324.220 1104.675,324.220 1117.463,324.220 1130.250,324.220 1143.037,324.220 1155.825,324.220 1168.613,324.220 1181.400,324.220 1194.187,318.923 1206.975,318.923 1219.763,318.923 1232.550,318.923 "/>
<g>
</g>
</g>
<g id="ID000004" clip-path="url(#ID000001)" >
      <polyline fill="none" stroke="#000000" stroke-width="2.0pt" stroke-dasharray="8.0,2.0,2.0,2.0" points="107.250,578.500 120.038,567.905 132.825,557.310 145.612,546.715 158.400,536.120 171.188,525.525 183.975,514.930 196.763,504.335 209.550,493.740 222.337,483.145 235.125,472.550 247.912,461.955 260.700,451.360 273.488,440.765 286.275,430.170 299.062,419.575 311.850,408.980 324.637,398.385 337.425,387.790 350.213,377.195 363.000,371.898 375.788,371.898 388.575,371.898 401.363,371.898 414.150,371.898 426.938,371.898 439.725,371.898 452.512,371.898 465.300,371.898 478.087,371.898 490.875,371.898 503.663,371.898 516.450,371.898 529.238,366.600 542.025,366.600 554.812,366.600 567.600,366.600 580.388,366.600 593.175,366.600 605.963,361.303 618.750,361.303 631.537,361.303 644.325,361.303 657.112,356.005 669.900,356.005 682.688,356.005 695.475,350.707 708.262,350.707 721.050,350.707 733.837,345.410 746.625,345.410 759.413,345.410 772.200,340.113 784.988,340.113 797.775,340.113 810.563,334.815 823.350,334.815 836.138,329.517 848.925,329.517 861.712,324.220 874.500,324.220 887.287,318.923 900.075,313.625 912.863,313.625 925.650,308.328 938.438,303.030 951.225,303.030 964.013,297.732 976.800,292.435 989.587,292.435 1002.375,287.137 1015.163,287.137 1027.950,281.840 1040.737,281.840 1053.525,276.543 1066.312,276.543 1079.100,271.245 1091.888,265.947 1104.675,265.947 1117.463,265.947 1130.250,255.353 1143.037,255.353 1155.825,250.055 1168.613,244.758 1181.400,244.758 1194.187,250.055 1206.975,244.758 1219.763,234.163 1232.550,234.163 "/>
<g>
</g>
</g>
<g id="ID000005" clip-path="url(#ID000001)" >
      <polyline fill="none" stroke="#000000" stroke-width="2.0pt" stroke-dasharray="2.0,2.0" points="107.250,578.500 120.038,567.905 132.825,557.310 145.612,546.715 158.400,536.120 171.188,525.525 183.975,514.930 196.763,504.335 209.550,493.740 222.337,483.145 235.125,472.550 247.912,461.955 260.700,451.360 273.488,440.765 286.275,430.170 299.062,419.575 311.850,408.980 324.637,398.385 337.425,387.790 350.213,377.195 363.000,366.600 375.788,356.005 388.575,345.410 401.363,340.113 414.150,340.113 426.938,334.815 439.725,334.815 452.512,334.815 465.300,334.815 478.087,334.815 490.875,334.815 503.663,334.815 516.450,329.517 529.238,329.517 542.025,329.517 554.812,329.517 567.600,329.517 580.388,329.517 593.175,324.220 605.963,324.220 618.750,324.220 631.537,324.220 644.325,324.220 657.112,318.923 669.900,318.923 682.688,318.923 695.475,318.923 708.262,318.923 721.050,313.625 733.837,313.625 746.625,313.625 759.413,308.328 772.200,308.328 784.988,308.328 797.775,308.328 810.563,303.030 823.350,303.030 836.138,303.030 848.925,297.732 861.712,297.732 874.500,297.732 887.287,292.435 900.075,292.435 912.863,287.137 925.650,287.137 938.438,287.137 951.225,281.840 964.013,281.840 976.800,276.543 989.587,276.543 1002.375,271.245 1015.163,271.245 1027.950,265.947 1040.737,265.947 1053.525,260.650 1066.312,260.650 1079.100,255.353 1091.888,255.353 1104.675,250.055 1117.463,244.758 1130.250,244.758 1143.037,239.460 1155.825,234.163 1168.613,228.865 1181.400,228.865 1194.187,223.567 1206.975,218.270 1219.763,218.270 1232.550,212.973 "/>
<g>
</g>
</g>
<g id="ID000006" >
  <g transform="translate(425.686,612.240)">
    <g transform="rotate(-0.0)">
      <text x="0.000" y="0.000" font-family="Helvetica" text-anchor="middle" font-size="12pt" fill="#000000" >Measured Stock</text>
    </g>
  </g>
</g>
<g id="ID000007" >
  <g transform="translate(73.470,315.499)">
    <g transform="rotate(-90.0)">
      <text x="0.000" y="0.000" font-family="Helvetica" text-anchor="middle" font-size="12pt" fill="#000000" >Optimal Expected Escapement</text>
    </g>
  </g>
</g>
<g id="ID000008" >
  <g transform="translate(426.937,41.252)">
    <g transform="rotate(-0.0)">
      <text x="0.000" y="0.000" font-family="Helvetica" text-anchor="middle" font-size="12pt" fill="#000000" >Fig. 3. Optimal fishing policy under multiple small/single large uncertainty</text>
    </g>
  </g>
</g>
<g id="ID000009" >
</g>
<g id="ID000010" >
</g>
<g id="ID000011" >
  <g transform="translate(426.938,531.150)">
    <g transform="rotate(-0.0)">
      <text x="0.000" y="0.000" font-family="Helvetica" text-anchor="start" font-size="12pt" fill="#000000" >Logistic, r=1</text>
    </g>
  </g>
</g>
    </g>
    <g>
      <polyline fill="none" stroke="#000000" stroke-width="0.5pt" stroke-dasharray="none" points="171.188,578.500 171.188,572.106 "/>
      <polyline fill="none" stroke="#000000" stroke-width="0.5pt" stroke-dasharray="none" points="235.125,578.500 235.125,572.106 "/>
      <polyline fill="none" stroke="#000000" stroke-width="0.5pt" stroke-dasharray="none" points="299.062,578.500 299.062,572.106 "/>
      <polyline fill="none" stroke="#000000" stroke-width="0.5pt" stroke-dasharray="none" points="363.000,578.500 363.000,572.106 "/>
      <polyline fill="none" stroke="#000000" stroke-width="0.5pt" stroke-dasharray="none" points="426.938,578.500 426.938,572.106 "/>
      <polyline fill="none" stroke="#000000" stroke-width="0.5pt" stroke-dasharray="none" points="490.875,578.500 490.875,572.106 "/>
      <polyline fill="none" stroke="#000000" stroke-width="0.5pt" stroke-dasharray="none" points="554.812,578.500 554.812,572.106 "/>
      <polyline fill="none" stroke="#000000" stroke-width="0.5pt" stroke-dasharray="none" points="618.750,578.500 618.750,572.106 "/>
      <polyline fill="none" stroke="#000000" stroke-width="0.5pt" stroke-dasharray="none" points="682.688,578.500 682.688,572.106 "/>
      <polyline fill="none" stroke="#000000" stroke-width="0.5pt" stroke-dasharray="none" points="107.250,578.500 746.625,578.500 "/>
      <polyline fill="none" stroke="#000000" stroke-width="0.5pt" stroke-dasharray="none" points="171.188,48.750 171.188,55.144 "/>
      <polyline fill="none" stroke="#000000" stroke-width="0.5pt" stroke-dasharray="none" points="235.125,48.750 235.125,55.144 "/>
      <polyline fill="none" stroke="#000000" stroke-width="0.5pt" stroke-dasharray="none" points="299.062,48.750 299.062,55.144 "/>
      <polyline fill="none" stroke="#000000" stroke-width="0.5pt" stroke-dasharray="none" points="363.000,48.750 363.000,55.144 "/>
      <polyline fill="none" stroke="#000000" stroke-width="0.5pt" stroke-dasharray="none" points="426.938,48.750 426.938,55.144 "/>
      <polyline fill="none" stroke="#000000" stroke-width="0.5pt" stroke-dasharray="none" points="490.875,48.750 490.875,55.144 "/>
      <polyline fill="none" stroke="#000000" stroke-width="0.5pt" stroke-dasharray="none" points="554.812,48.750 554.812,55.144 "/>
      <polyline fill="none" stroke="#000000" stroke-width="0.5pt" stroke-dasharray="none" points="618.750,48.750 618.750,55.144 "/>
      <polyline fill="none" stroke="#000000" stroke-width="0.5pt" stroke-dasharray="none" points="682.688,48.750 682.688,55.144 "/>
      <polyline fill="none" stroke="#000000" stroke-width="0.5pt" stroke-dasharray="none" points="107.250,48.750 746.625,48.750 "/>
  <g transform="translate(107.250,603.845)">
    <g transform="rotate(-0.0)">
      <text x="0.000" y="0.000" font-family="Helvetica" text-anchor="middle" font-size="12pt" fill="#000000" >0</text>
    </g>
  </g>
  <g transform="translate(171.188,603.845)">
    <g transform="rotate(-0.0)">
      <text x="0.000" y="0.000" font-family="Helvetica" text-anchor="middle" font-size="12pt" fill="#000000" >10</text>
    </g>
  </g>
  <g transform="translate(235.125,603.845)">
    <g transform="rotate(-0.0)">
      <text x="0.000" y="0.000" font-family="Helvetica" text-anchor="middle" font-size="12pt" fill="#000000" >20</text>
    </g>
  </g>
  <g transform="translate(299.062,603.845)">
    <g transform="rotate(-0.0)">
      <text x="0.000" y="0.000" font-family="Helvetica" text-anchor="middle" font-size="12pt" fill="#000000" >30</text>
    </g>
  </g>
  <g transform="translate(363.000,603.845)">
    <g transform="rotate(-0.0)">
      <text x="0.000" y="0.000" font-family="Helvetica" text-anchor="middle" font-size="12pt" fill="#000000" >40</text>
    </g>
  </g>
  <g transform="translate(426.938,603.845)">
    <g transform="rotate(-0.0)">
      <text x="0.000" y="0.000" font-family="Helvetica" text-anchor="middle" font-size="12pt" fill="#000000" >50</text>
    </g>
  </g>
  <g transform="translate(490.875,603.845)">
    <g transform="rotate(-0.0)">
      <text x="0.000" y="0.000" font-family="Helvetica" text-anchor="middle" font-size="12pt" fill="#000000" >60</text>
    </g>
  </g>
  <g transform="translate(554.812,603.845)">
    <g transform="rotate(-0.0)">
      <text x="0.000" y="0.000" font-family="Helvetica" text-anchor="middle" font-size="12pt" fill="#000000" >70</text>
    </g>
  </g>
  <g transform="translate(618.750,603.845)">
    <g transform="rotate(-0.0)">
      <text x="0.000" y="0.000" font-family="Helvetica" text-anchor="middle" font-size="12pt" fill="#000000" >80</text>
    </g>
  </g>
  <g transform="translate(682.688,603.845)">
    <g transform="rotate(-0.0)">
      <text x="0.000" y="0.000" font-family="Helvetica" text-anchor="middle" font-size="12pt" fill="#000000" >90</text>
    </g>
  </g>
  <g transform="translate(746.625,603.845)">
    <g transform="rotate(-0.0)">
      <text x="0.000" y="0.000" font-family="Helvetica" text-anchor="middle" font-size="12pt" fill="#000000" >100</text>
    </g>
  </g>
      <polyline fill="none" stroke="#000000" stroke-width="0.5pt" stroke-dasharray="none" points="107.250,525.525 113.644,525.525 "/>
      <polyline fill="none" stroke="#000000" stroke-width="0.5pt" stroke-dasharray="none" points="107.250,472.550 113.644,472.550 "/>
      <polyline fill="none" stroke="#000000" stroke-width="0.5pt" stroke-dasharray="none" points="107.250,419.575 113.644,419.575 "/>
      <polyline fill="none" stroke="#000000" stroke-width="0.5pt" stroke-dasharray="none" points="107.250,366.600 113.644,366.600 "/>
      <polyline fill="none" stroke="#000000" stroke-width="0.5pt" stroke-dasharray="none" points="107.250,313.625 113.644,313.625 "/>
      <polyline fill="none" stroke="#000000" stroke-width="0.5pt" stroke-dasharray="none" points="107.250,260.650 113.644,260.650 "/>
      <polyline fill="none" stroke="#000000" stroke-width="0.5pt" stroke-dasharray="none" points="107.250,207.675 113.644,207.675 "/>
      <polyline fill="none" stroke="#000000" stroke-width="0.5pt" stroke-dasharray="none" points="107.250,154.700 113.644,154.700 "/>
      <polyline fill="none" stroke="#000000" stroke-width="0.5pt" stroke-dasharray="none" points="107.250,101.725 113.644,101.725 "/>
      <polyline fill="none" stroke="#000000" stroke-width="0.5pt" stroke-dasharray="none" points="107.250,578.500 107.250,48.750 "/>
      <polyline fill="none" stroke="#000000" stroke-width="0.5pt" stroke-dasharray="none" points="746.625,525.525 740.231,525.525 "/>
      <polyline fill="none" stroke="#000000" stroke-width="0.5pt" stroke-dasharray="none" points="746.625,472.550 740.231,472.550 "/>
      <polyline fill="none" stroke="#000000" stroke-width="0.5pt" stroke-dasharray="none" points="746.625,419.575 740.231,419.575 "/>
      <polyline fill="none" stroke="#000000" stroke-width="0.5pt" stroke-dasharray="none" points="746.625,366.600 740.231,366.600 "/>
      <polyline fill="none" stroke="#000000" stroke-width="0.5pt" stroke-dasharray="none" points="746.625,313.625 740.231,313.625 "/>
      <polyline fill="none" stroke="#000000" stroke-width="0.5pt" stroke-dasharray="none" points="746.625,260.650 740.231,260.650 "/>
      <polyline fill="none" stroke="#000000" stroke-width="0.5pt" stroke-dasharray="none" points="746.625,207.675 740.231,207.675 "/>
      <polyline fill="none" stroke="#000000" stroke-width="0.5pt" stroke-dasharray="none" points="746.625,154.700 740.231,154.700 "/>
      <polyline fill="none" stroke="#000000" stroke-width="0.5pt" stroke-dasharray="none" points="746.625,101.725 740.231,101.725 "/>
      <polyline fill="none" stroke="#000000" stroke-width="0.5pt" stroke-dasharray="none" points="746.625,578.500 746.625,48.750 "/>
  <g transform="translate(94.462,584.125)">
    <g transform="rotate(-0.0)">
      <text x="0.000" y="0.000" font-family="Helvetica" text-anchor="end" font-size="12pt" fill="#000000" >0</text>
    </g>
  </g>
  <g transform="translate(94.462,531.150)">
    <g transform="rotate(-0.0)">
      <text x="0.000" y="0.000" font-family="Helvetica" text-anchor="end" font-size="12pt" fill="#000000" >10</text>
    </g>
  </g>
  <g transform="translate(94.462,478.175)">
    <g transform="rotate(-0.0)">
      <text x="0.000" y="0.000" font-family="Helvetica" text-anchor="end" font-size="12pt" fill="#000000" >20</text>
    </g>
  </g>
  <g transform="translate(94.462,425.200)">
    <g transform="rotate(-0.0)">
      <text x="0.000" y="0.000" font-family="Helvetica" text-anchor="end" font-size="12pt" fill="#000000" >30</text>
    </g>
  </g>
  <g transform="translate(94.462,372.225)">
    <g transform="rotate(-0.0)">
      <text x="0.000" y="0.000" font-family="Helvetica" text-anchor="end" font-size="12pt" fill="#000000" >40</text>
    </g>
  </g>
  <g transform="translate(94.462,319.250)">
    <g transform="rotate(-0.0)">
      <text x="0.000" y="0.000" font-family="Helvetica" text-anchor="end" font-size="12pt" fill="#000000" >50</text>
    </g>
  </g>
  <g transform="translate(94.462,266.275)">
    <g transform="rotate(-0.0)">
      <text x="0.000" y="0.000" font-family="Helvetica" text-anchor="end" font-size="12pt" fill="#000000" >60</text>
    </g>
  </g>
  <g transform="translate(94.462,213.300)">
    <g transform="rotate(-0.0)">
      <text x="0.000" y="0.000" font-family="Helvetica" text-anchor="end" font-size="12pt" fill="#000000" >70</text>
    </g>
  </g>
  <g transform="translate(94.462,160.325)">
    <g transform="rotate(-0.0)">
      <text x="0.000" y="0.000" font-family="Helvetica" text-anchor="end" font-size="12pt" fill="#000000" >80</text>
    </g>
  </g>
  <g transform="translate(94.462,107.350)">
    <g transform="rotate(-0.0)">
      <text x="0.000" y="0.000" font-family="Helvetica" text-anchor="end" font-size="12pt" fill="#000000" >90</text>
    </g>
  </g>
  <g transform="translate(94.462,54.375)">
    <g transform="rotate(-0.0)">
      <text x="0.000" y="0.000" font-family="Helvetica" text-anchor="end" font-size="12pt" fill="#000000" >100</text>
    </g>
  </g>
      <polyline fill="none" stroke="#000000" stroke-width="0.5pt" stroke-dasharray="none" points="107.250,578.500 107.250,573.202 "/>
      <polyline fill="none" stroke="#000000" stroke-width="0.5pt" stroke-dasharray="none" points="107.250,578.500 107.250,578.500 "/>
    </g>
  </g>
  <g id ="ID000012">
  <clipPath id="ID000013">
    <rect x="114.375" y="55.625" width="242.500" height="71.875"/>
  </clipPath>
      <polygon fill="#ffffff" fill-opacity="1.00" stroke="none" stroke-width="0.5pt" stroke-opacity="1.00" stroke-dasharray="none" points="114.375,127.500 356.875,127.500 356.875,55.625 114.375,55.625 "/>
      <polygon fill="#ffffff" fill-opacity="1.00" stroke="none" stroke-width="0.5pt" stroke-opacity="1.00" stroke-dasharray="none" points="114.375,55.625 356.875,55.625 356.875,55.625 114.375,55.625 "/>
      <polygon fill="#ffffff" fill-opacity="1.00" stroke="none" stroke-width="0.5pt" stroke-opacity="1.00" stroke-dasharray="none" points="114.375,127.500 114.375,127.500 114.375,55.625 114.375,55.625 "/>
    <g>
<g id="ID000014" >
  <g transform="translate(163.497,73.023)">
    <g transform="rotate(-0.0)">
      <text x="0.000" y="0.000" font-family="Helvetica" text-anchor="start" font-size="12pt" fill="#000000" >All Uncertainties Low</text>
    </g>
  </g>
</g>
<g id="ID000015" clip-path="url(#ID000013)" >
      <polyline fill="none" stroke="#000000" stroke-width="2.0pt" stroke-dasharray="none" points="121.875,66.250 159.375,66.250 "/>
<g>
</g>
</g>
<g id="ID000016" clip-path="url(#ID000013)" >
<g>
</g>
</g>
<g id="ID000017" >
  <g transform="translate(163.497,90.372)">
    <g transform="rotate(-0.0)">
      <text x="0.000" y="0.000" font-family="Helvetica" text-anchor="start" font-size="12pt" fill="#000000" >Large Growth Uncertainty</text>
    </g>
  </g>
</g>
<g id="ID000018" clip-path="url(#ID000013)" >
      <polyline fill="none" stroke="#000000" stroke-width="2.0pt" stroke-dasharray="8.0,2.0" points="121.875,83.125 159.375,83.125 "/>
<g>
</g>
</g>
<g id="ID000019" clip-path="url(#ID000013)" >
<g>
</g>
</g>
<g id="ID000020" >
  <g transform="translate(163.497,106.482)">
    <g transform="rotate(-0.0)">
      <text x="0.000" y="0.000" font-family="Helvetica" text-anchor="start" font-size="12pt" fill="#000000" >Large Measurement Uncertainty</text>
    </g>
  </g>
</g>
<g id="ID000021" clip-path="url(#ID000013)" >
      <polyline fill="none" stroke="#000000" stroke-width="2.0pt" stroke-dasharray="8.0,2.0,2.0,2.0" points="121.875,100.000 159.375,100.000 "/>
<g>
</g>
</g>
<g id="ID000022" clip-path="url(#ID000013)" >
<g>
</g>
</g>
<g id="ID000023" >
  <g transform="translate(163.497,123.831)">
    <g transform="rotate(-0.0)">
      <text x="0.000" y="0.000" font-family="Helvetica" text-anchor="start" font-size="12pt" fill="#000000" >Large Implementation Uncertainty</text>
    </g>
  </g>
</g>
<g id="ID000024" clip-path="url(#ID000013)" >
      <polyline fill="none" stroke="#000000" stroke-width="2.0pt" stroke-dasharray="2.0,2.0" points="121.875,116.875 159.375,116.875 "/>
<g>
</g>
</g>
<g id="ID000025" clip-path="url(#ID000013)" >
<g>
</g>
</g>
<g id="ID000026" >
</g>
<g id="ID000027" >
</g>
<g id="ID000028" >
</g>
    </g>
    <g>
      <polyline fill="none" stroke="#000000" stroke-width="0.5pt" stroke-dasharray="none" points="114.375,127.500 356.875,127.500 "/>
      <polyline fill="none" stroke="#000000" stroke-width="0.5pt" stroke-dasharray="none" points="114.375,55.625 356.875,55.625 "/>
      <polyline fill="none" stroke="#000000" stroke-width="0.5pt" stroke-dasharray="none" points="114.375,127.500 114.375,55.625 "/>
      <polyline fill="none" stroke="#000000" stroke-width="0.5pt" stroke-dasharray="none" points="356.875,127.500 356.875,55.625 "/>
      <polyline fill="none" stroke="#000000" stroke-width="0.5pt" stroke-dasharray="none" points="114.375,127.500 114.375,126.781 "/>
      <polyline fill="none" stroke="#000000" stroke-width="0.5pt" stroke-dasharray="none" points="114.375,127.500 114.375,127.500 "/>
    </g>
  </g>
  </g>
</svg>
