<?xml version="1.0" encoding="utf-8" standalone="no"?><!DOCTYPE svg PUBLIC "-//W3C//DTD SVG 1.1//EN" "http://www.w3.org/Graphics/SVG/1.1/DTD/svg11.dtd">
<svg preserveAspectRatio="xMinYMin meet" width="100%" height="100%" viewBox="0 0 825.000 650.000"  version="1.1" xmlns="http://www.w3.org/2000/svg" xmlns:xlink="http://www.w3.org/1999/xlink">
  <desc>Matlab Figure Converted by PLOT2SVG written by Juerg Schwizer</desc>
  <g id="topgroup">
  <rect x="0" y="0" width="825.000" height="650.000" fill="#ffffff" stroke="none" />
  <g id ="ID000000">
  <clipPath id="ID000001">
    <rect x="107.250" y="48.750" width="639.375" height="529.750"/>
  </clipPath>
      <polygon fill="#ffffff" fill-opacity="1.00" stroke="none" stroke-width="0.5pt" stroke-opacity="1.00" stroke-dasharray="none" points="107.250,578.500 746.625,578.500 746.625,48.750 107.250,48.750 "/>
      <polygon fill="#ffffff" fill-opacity="1.00" stroke="none" stroke-width="0.5pt" stroke-opacity="1.00" stroke-dasharray="none" points="107.250,48.750 746.625,48.750 746.625,48.750 107.250,48.750 "/>
      <polygon fill="#ffffff" fill-opacity="1.00" stroke="none" stroke-width="0.5pt" stroke-opacity="1.00" stroke-dasharray="none" points="107.250,578.500 107.250,578.500 107.250,48.750 107.250,48.750 "/>
    <g>
<g id="ID000002" clip-path="url(#ID000001)" >
      <polyline fill="none" stroke="#0000ff" stroke-width="0.5pt" stroke-dasharray="none" points="107.250,578.500 139.219,552.013 171.188,525.525 203.156,499.037 235.125,472.550 267.094,446.062 299.062,419.575 331.031,393.088 363.000,366.600 394.969,340.113 426.938,313.625 458.906,313.625 490.875,313.625 522.844,313.625 554.812,313.625 586.781,313.625 618.750,313.625 650.719,313.625 682.688,313.625 714.656,313.625 746.625,313.625 778.594,313.625 810.563,313.625 842.531,313.625 874.500,313.625 906.469,313.625 938.438,313.625 970.406,313.625 1002.375,313.625 1034.344,313.625 1066.312,313.625 "/>
<g>
</g>
</g>
<g id="ID000003" clip-path="url(#ID000001)" >
      <polyline fill="none" stroke="#000000" stroke-width="0.5pt" stroke-dasharray="8.0,2.0" points="107.250,578.500 139.219,552.013 171.188,525.525 203.156,499.037 235.125,472.550 267.094,446.062 299.062,419.575 331.031,393.088 363.000,366.600 394.969,340.113 426.938,340.113 458.906,340.113 490.875,340.113 522.844,340.113 554.812,340.113 586.781,340.113 618.750,340.113 650.719,340.113 682.688,340.113 714.656,340.113 746.625,340.113 778.594,340.113 810.563,340.113 842.531,340.113 874.500,340.113 906.469,340.113 938.438,340.113 970.406,340.113 1002.375,340.113 1034.344,340.113 1066.312,340.113 "/>
<g>
</g>
</g>
<g id="ID000004" clip-path="url(#ID000001)" >
      <polyline fill="none" stroke="#00ff00" stroke-width="0.5pt" stroke-dasharray="none" points="107.250,578.500 139.219,552.013 171.188,525.525 203.156,499.037 235.125,472.550 267.094,446.062 299.062,419.575 331.031,393.088 363.000,393.088 394.969,393.088 426.938,393.088 458.906,393.088 490.875,393.088 522.844,393.088 554.812,393.088 586.781,366.600 618.750,366.600 650.719,366.600 682.688,340.113 714.656,340.113 746.625,340.113 778.594,313.625 810.563,313.625 842.531,287.137 874.500,287.137 906.469,260.650 938.438,260.650 970.406,234.163 1002.375,207.675 1034.344,207.675 1066.312,181.188 "/>
<g>
<circle cx="107.250" cy="578.500" r="1.000" fill="#00ff00" stroke="none" stroke-width="0.5pt" />
<circle cx="139.219" cy="552.013" r="1.000" fill="#00ff00" stroke="none" stroke-width="0.5pt" />
<circle cx="171.188" cy="525.525" r="1.000" fill="#00ff00" stroke="none" stroke-width="0.5pt" />
<circle cx="203.156" cy="499.037" r="1.000" fill="#00ff00" stroke="none" stroke-width="0.5pt" />
<circle cx="235.125" cy="472.550" r="1.000" fill="#00ff00" stroke="none" stroke-width="0.5pt" />
<circle cx="267.094" cy="446.062" r="1.000" fill="#00ff00" stroke="none" stroke-width="0.5pt" />
<circle cx="299.062" cy="419.575" r="1.000" fill="#00ff00" stroke="none" stroke-width="0.5pt" />
<circle cx="331.031" cy="393.088" r="1.000" fill="#00ff00" stroke="none" stroke-width="0.5pt" />
<circle cx="363.000" cy="393.088" r="1.000" fill="#00ff00" stroke="none" stroke-width="0.5pt" />
<circle cx="394.969" cy="393.088" r="1.000" fill="#00ff00" stroke="none" stroke-width="0.5pt" />
<circle cx="426.938" cy="393.088" r="1.000" fill="#00ff00" stroke="none" stroke-width="0.5pt" />
<circle cx="458.906" cy="393.088" r="1.000" fill="#00ff00" stroke="none" stroke-width="0.5pt" />
<circle cx="490.875" cy="393.088" r="1.000" fill="#00ff00" stroke="none" stroke-width="0.5pt" />
<circle cx="522.844" cy="393.088" r="1.000" fill="#00ff00" stroke="none" stroke-width="0.5pt" />
<circle cx="554.812" cy="393.088" r="1.000" fill="#00ff00" stroke="none" stroke-width="0.5pt" />
<circle cx="586.781" cy="366.600" r="1.000" fill="#00ff00" stroke="none" stroke-width="0.5pt" />
<circle cx="618.750" cy="366.600" r="1.000" fill="#00ff00" stroke="none" stroke-width="0.5pt" />
<circle cx="650.719" cy="366.600" r="1.000" fill="#00ff00" stroke="none" stroke-width="0.5pt" />
<circle cx="682.688" cy="340.113" r="1.000" fill="#00ff00" stroke="none" stroke-width="0.5pt" />
<circle cx="714.656" cy="340.113" r="1.000" fill="#00ff00" stroke="none" stroke-width="0.5pt" />
<circle cx="746.625" cy="340.113" r="1.000" fill="#00ff00" stroke="none" stroke-width="0.5pt" />
<circle cx="778.594" cy="313.625" r="1.000" fill="#00ff00" stroke="none" stroke-width="0.5pt" />
<circle cx="810.563" cy="313.625" r="1.000" fill="#00ff00" stroke="none" stroke-width="0.5pt" />
<circle cx="842.531" cy="287.137" r="1.000" fill="#00ff00" stroke="none" stroke-width="0.5pt" />
<circle cx="874.500" cy="287.137" r="1.000" fill="#00ff00" stroke="none" stroke-width="0.5pt" />
<circle cx="906.469" cy="260.650" r="1.000" fill="#00ff00" stroke="none" stroke-width="0.5pt" />
<circle cx="938.438" cy="260.650" r="1.000" fill="#00ff00" stroke="none" stroke-width="0.5pt" />
<circle cx="970.406" cy="234.163" r="1.000" fill="#00ff00" stroke="none" stroke-width="0.5pt" />
<circle cx="1002.375" cy="207.675" r="1.000" fill="#00ff00" stroke="none" stroke-width="0.5pt" />
<circle cx="1034.344" cy="207.675" r="1.000" fill="#00ff00" stroke="none" stroke-width="0.5pt" />
<circle cx="1066.312" cy="181.188" r="1.000" fill="#00ff00" stroke="none" stroke-width="0.5pt" />
</g>
</g>
<g id="ID000005" clip-path="url(#ID000001)" >
<g>
<circle cx="107.250" cy="578.500" r="1.000" fill="#ff0000" stroke="none" stroke-width="0.5pt" />
<circle cx="139.219" cy="552.013" r="1.000" fill="#ff0000" stroke="none" stroke-width="0.5pt" />
<circle cx="171.188" cy="525.525" r="1.000" fill="#ff0000" stroke="none" stroke-width="0.5pt" />
<circle cx="203.156" cy="499.037" r="1.000" fill="#ff0000" stroke="none" stroke-width="0.5pt" />
<circle cx="235.125" cy="472.550" r="1.000" fill="#ff0000" stroke="none" stroke-width="0.5pt" />
<circle cx="267.094" cy="446.062" r="1.000" fill="#ff0000" stroke="none" stroke-width="0.5pt" />
<circle cx="299.062" cy="419.575" r="1.000" fill="#ff0000" stroke="none" stroke-width="0.5pt" />
<circle cx="331.031" cy="393.088" r="1.000" fill="#ff0000" stroke="none" stroke-width="0.5pt" />
<circle cx="363.000" cy="366.600" r="1.000" fill="#ff0000" stroke="none" stroke-width="0.5pt" />
<circle cx="394.969" cy="340.113" r="1.000" fill="#ff0000" stroke="none" stroke-width="0.5pt" />
<circle cx="426.938" cy="313.625" r="1.000" fill="#ff0000" stroke="none" stroke-width="0.5pt" />
<circle cx="458.906" cy="340.113" r="1.000" fill="#ff0000" stroke="none" stroke-width="0.5pt" />
<circle cx="490.875" cy="313.625" r="1.000" fill="#ff0000" stroke="none" stroke-width="0.5pt" />
<circle cx="522.844" cy="340.113" r="1.000" fill="#ff0000" stroke="none" stroke-width="0.5pt" />
<circle cx="554.812" cy="313.625" r="1.000" fill="#ff0000" stroke="none" stroke-width="0.5pt" />
<circle cx="586.781" cy="313.625" r="1.000" fill="#ff0000" stroke="none" stroke-width="0.5pt" />
<circle cx="618.750" cy="313.625" r="1.000" fill="#ff0000" stroke="none" stroke-width="0.5pt" />
<circle cx="650.719" cy="313.625" r="1.000" fill="#ff0000" stroke="none" stroke-width="0.5pt" />
<circle cx="682.688" cy="313.625" r="1.000" fill="#ff0000" stroke="none" stroke-width="0.5pt" />
<circle cx="714.656" cy="313.625" r="1.000" fill="#ff0000" stroke="none" stroke-width="0.5pt" />
<circle cx="746.625" cy="313.625" r="1.000" fill="#ff0000" stroke="none" stroke-width="0.5pt" />
<circle cx="778.594" cy="313.625" r="1.000" fill="#ff0000" stroke="none" stroke-width="0.5pt" />
<circle cx="810.563" cy="287.137" r="1.000" fill="#ff0000" stroke="none" stroke-width="0.5pt" />
<circle cx="842.531" cy="287.137" r="1.000" fill="#ff0000" stroke="none" stroke-width="0.5pt" />
<circle cx="874.500" cy="287.137" r="1.000" fill="#ff0000" stroke="none" stroke-width="0.5pt" />
<circle cx="906.469" cy="287.137" r="1.000" fill="#ff0000" stroke="none" stroke-width="0.5pt" />
<circle cx="938.438" cy="260.650" r="1.000" fill="#ff0000" stroke="none" stroke-width="0.5pt" />
<circle cx="970.406" cy="260.650" r="1.000" fill="#ff0000" stroke="none" stroke-width="0.5pt" />
<circle cx="1002.375" cy="260.650" r="1.000" fill="#ff0000" stroke="none" stroke-width="0.5pt" />
<circle cx="1034.344" cy="234.163" r="1.000" fill="#ff0000" stroke="none" stroke-width="0.5pt" />
<circle cx="1066.312" cy="234.163" r="1.000" fill="#ff0000" stroke="none" stroke-width="0.5pt" />
</g>
</g>
<g id="ID000006" >
  <g transform="translate(425.351,615.097)">
    <g transform="rotate(-0.0)">
      <text x="0.000" y="0.000" font-family="Helvetica" text-anchor="middle" font-size="12pt" fill="#000000" >Fish Stock</text>
    </g>
  </g>
</g>
<g id="ID000007" >
  <g transform="translate(65.255,315.038)">
    <g transform="rotate(-90.0)">
      <text x="0.000" y="0.000" font-family="Helvetica" text-anchor="middle" font-size="12pt" fill="#000000" >Policy Function, H</text>
    </g>
  </g>
</g>
<g id="ID000008" >
  <g transform="translate(426.938,40.681)">
    <g transform="rotate(-0.0)">
      <text x="0.000" y="0.000" font-family="Helvetica" text-anchor="middle" font-size="12pt" fill="#000000" >Figure 3 in Sethi</text>
    </g>
  </g>
</g>
<g id="ID000009" >
</g>
<g id="ID000010" >
</g>
    </g>
    <g>
      <polyline fill="none" stroke="#000000" stroke-width="0.5pt" stroke-dasharray="none" points="171.188,578.500 171.188,572.106 "/>
      <polyline fill="none" stroke="#000000" stroke-width="0.5pt" stroke-dasharray="none" points="235.125,578.500 235.125,572.106 "/>
      <polyline fill="none" stroke="#000000" stroke-width="0.5pt" stroke-dasharray="none" points="299.062,578.500 299.062,572.106 "/>
      <polyline fill="none" stroke="#000000" stroke-width="0.5pt" stroke-dasharray="none" points="363.000,578.500 363.000,572.106 "/>
      <polyline fill="none" stroke="#000000" stroke-width="0.5pt" stroke-dasharray="none" points="426.938,578.500 426.938,572.106 "/>
      <polyline fill="none" stroke="#000000" stroke-width="0.5pt" stroke-dasharray="none" points="490.875,578.500 490.875,572.106 "/>
      <polyline fill="none" stroke="#000000" stroke-width="0.5pt" stroke-dasharray="none" points="554.812,578.500 554.812,572.106 "/>
      <polyline fill="none" stroke="#000000" stroke-width="0.5pt" stroke-dasharray="none" points="618.750,578.500 618.750,572.106 "/>
      <polyline fill="none" stroke="#000000" stroke-width="0.5pt" stroke-dasharray="none" points="682.688,578.500 682.688,572.106 "/>
      <polyline fill="none" stroke="#000000" stroke-width="0.5pt" stroke-dasharray="none" points="107.250,578.500 746.625,578.500 "/>
      <polyline fill="none" stroke="#000000" stroke-width="0.5pt" stroke-dasharray="none" points="171.188,48.750 171.188,55.144 "/>
      <polyline fill="none" stroke="#000000" stroke-width="0.5pt" stroke-dasharray="none" points="235.125,48.750 235.125,55.144 "/>
      <polyline fill="none" stroke="#000000" stroke-width="0.5pt" stroke-dasharray="none" points="299.062,48.750 299.062,55.144 "/>
      <polyline fill="none" stroke="#000000" stroke-width="0.5pt" stroke-dasharray="none" points="363.000,48.750 363.000,55.144 "/>
      <polyline fill="none" stroke="#000000" stroke-width="0.5pt" stroke-dasharray="none" points="426.938,48.750 426.938,55.144 "/>
      <polyline fill="none" stroke="#000000" stroke-width="0.5pt" stroke-dasharray="none" points="490.875,48.750 490.875,55.144 "/>
      <polyline fill="none" stroke="#000000" stroke-width="0.5pt" stroke-dasharray="none" points="554.812,48.750 554.812,55.144 "/>
      <polyline fill="none" stroke="#000000" stroke-width="0.5pt" stroke-dasharray="none" points="618.750,48.750 618.750,55.144 "/>
      <polyline fill="none" stroke="#000000" stroke-width="0.5pt" stroke-dasharray="none" points="682.688,48.750 682.688,55.144 "/>
      <polyline fill="none" stroke="#000000" stroke-width="0.5pt" stroke-dasharray="none" points="107.250,48.750 746.625,48.750 "/>
  <g transform="translate(107.250,603.845)">
    <g transform="rotate(-0.0)">
      <text x="0.000" y="0.000" font-family="Helvetica" text-anchor="middle" font-size="12pt" fill="#000000" >0</text>
    </g>
  </g>
  <g transform="translate(171.188,603.845)">
    <g transform="rotate(-0.0)">
      <text x="0.000" y="0.000" font-family="Helvetica" text-anchor="middle" font-size="12pt" fill="#000000" >10</text>
    </g>
  </g>
  <g transform="translate(235.125,603.845)">
    <g transform="rotate(-0.0)">
      <text x="0.000" y="0.000" font-family="Helvetica" text-anchor="middle" font-size="12pt" fill="#000000" >20</text>
    </g>
  </g>
  <g transform="translate(299.062,603.845)">
    <g transform="rotate(-0.0)">
      <text x="0.000" y="0.000" font-family="Helvetica" text-anchor="middle" font-size="12pt" fill="#000000" >30</text>
    </g>
  </g>
  <g transform="translate(363.000,603.845)">
    <g transform="rotate(-0.0)">
      <text x="0.000" y="0.000" font-family="Helvetica" text-anchor="middle" font-size="12pt" fill="#000000" >40</text>
    </g>
  </g>
  <g transform="translate(426.938,603.845)">
    <g transform="rotate(-0.0)">
      <text x="0.000" y="0.000" font-family="Helvetica" text-anchor="middle" font-size="12pt" fill="#000000" >50</text>
    </g>
  </g>
  <g transform="translate(490.875,603.845)">
    <g transform="rotate(-0.0)">
      <text x="0.000" y="0.000" font-family="Helvetica" text-anchor="middle" font-size="12pt" fill="#000000" >60</text>
    </g>
  </g>
  <g transform="translate(554.812,603.845)">
    <g transform="rotate(-0.0)">
      <text x="0.000" y="0.000" font-family="Helvetica" text-anchor="middle" font-size="12pt" fill="#000000" >70</text>
    </g>
  </g>
  <g transform="translate(618.750,603.845)">
    <g transform="rotate(-0.0)">
      <text x="0.000" y="0.000" font-family="Helvetica" text-anchor="middle" font-size="12pt" fill="#000000" >80</text>
    </g>
  </g>
  <g transform="translate(682.688,603.845)">
    <g transform="rotate(-0.0)">
      <text x="0.000" y="0.000" font-family="Helvetica" text-anchor="middle" font-size="12pt" fill="#000000" >90</text>
    </g>
  </g>
  <g transform="translate(746.625,603.845)">
    <g transform="rotate(-0.0)">
      <text x="0.000" y="0.000" font-family="Helvetica" text-anchor="middle" font-size="12pt" fill="#000000" >100</text>
    </g>
  </g>
      <polyline fill="none" stroke="#000000" stroke-width="0.5pt" stroke-dasharray="none" points="107.250,525.525 113.644,525.525 "/>
      <polyline fill="none" stroke="#000000" stroke-width="0.5pt" stroke-dasharray="none" points="107.250,472.550 113.644,472.550 "/>
      <polyline fill="none" stroke="#000000" stroke-width="0.5pt" stroke-dasharray="none" points="107.250,419.575 113.644,419.575 "/>
      <polyline fill="none" stroke="#000000" stroke-width="0.5pt" stroke-dasharray="none" points="107.250,366.600 113.644,366.600 "/>
      <polyline fill="none" stroke="#000000" stroke-width="0.5pt" stroke-dasharray="none" points="107.250,313.625 113.644,313.625 "/>
      <polyline fill="none" stroke="#000000" stroke-width="0.5pt" stroke-dasharray="none" points="107.250,260.650 113.644,260.650 "/>
      <polyline fill="none" stroke="#000000" stroke-width="0.5pt" stroke-dasharray="none" points="107.250,207.675 113.644,207.675 "/>
      <polyline fill="none" stroke="#000000" stroke-width="0.5pt" stroke-dasharray="none" points="107.250,154.700 113.644,154.700 "/>
      <polyline fill="none" stroke="#000000" stroke-width="0.5pt" stroke-dasharray="none" points="107.250,101.725 113.644,101.725 "/>
      <polyline fill="none" stroke="#000000" stroke-width="0.5pt" stroke-dasharray="none" points="107.250,578.500 107.250,48.750 "/>
      <polyline fill="none" stroke="#000000" stroke-width="0.5pt" stroke-dasharray="none" points="746.625,525.525 740.231,525.525 "/>
      <polyline fill="none" stroke="#000000" stroke-width="0.5pt" stroke-dasharray="none" points="746.625,472.550 740.231,472.550 "/>
      <polyline fill="none" stroke="#000000" stroke-width="0.5pt" stroke-dasharray="none" points="746.625,419.575 740.231,419.575 "/>
      <polyline fill="none" stroke="#000000" stroke-width="0.5pt" stroke-dasharray="none" points="746.625,366.600 740.231,366.600 "/>
      <polyline fill="none" stroke="#000000" stroke-width="0.5pt" stroke-dasharray="none" points="746.625,313.625 740.231,313.625 "/>
      <polyline fill="none" stroke="#000000" stroke-width="0.5pt" stroke-dasharray="none" points="746.625,260.650 740.231,260.650 "/>
      <polyline fill="none" stroke="#000000" stroke-width="0.5pt" stroke-dasharray="none" points="746.625,207.675 740.231,207.675 "/>
      <polyline fill="none" stroke="#000000" stroke-width="0.5pt" stroke-dasharray="none" points="746.625,154.700 740.231,154.700 "/>
      <polyline fill="none" stroke="#000000" stroke-width="0.5pt" stroke-dasharray="none" points="746.625,101.725 740.231,101.725 "/>
      <polyline fill="none" stroke="#000000" stroke-width="0.5pt" stroke-dasharray="none" points="746.625,578.500 746.625,48.750 "/>
  <g transform="translate(94.463,584.125)">
    <g transform="rotate(-0.0)">
      <text x="0.000" y="0.000" font-family="Helvetica" text-anchor="end" font-size="12pt" fill="#000000" >0</text>
    </g>
  </g>
  <g transform="translate(94.463,531.150)">
    <g transform="rotate(-0.0)">
      <text x="0.000" y="0.000" font-family="Helvetica" text-anchor="end" font-size="12pt" fill="#000000" >10</text>
    </g>
  </g>
  <g transform="translate(94.463,478.175)">
    <g transform="rotate(-0.0)">
      <text x="0.000" y="0.000" font-family="Helvetica" text-anchor="end" font-size="12pt" fill="#000000" >20</text>
    </g>
  </g>
  <g transform="translate(94.463,425.200)">
    <g transform="rotate(-0.0)">
      <text x="0.000" y="0.000" font-family="Helvetica" text-anchor="end" font-size="12pt" fill="#000000" >30</text>
    </g>
  </g>
  <g transform="translate(94.463,372.225)">
    <g transform="rotate(-0.0)">
      <text x="0.000" y="0.000" font-family="Helvetica" text-anchor="end" font-size="12pt" fill="#000000" >40</text>
    </g>
  </g>
  <g transform="translate(94.463,319.250)">
    <g transform="rotate(-0.0)">
      <text x="0.000" y="0.000" font-family="Helvetica" text-anchor="end" font-size="12pt" fill="#000000" >50</text>
    </g>
  </g>
  <g transform="translate(94.463,266.275)">
    <g transform="rotate(-0.0)">
      <text x="0.000" y="0.000" font-family="Helvetica" text-anchor="end" font-size="12pt" fill="#000000" >60</text>
    </g>
  </g>
  <g transform="translate(94.463,213.300)">
    <g transform="rotate(-0.0)">
      <text x="0.000" y="0.000" font-family="Helvetica" text-anchor="end" font-size="12pt" fill="#000000" >70</text>
    </g>
  </g>
  <g transform="translate(94.463,160.325)">
    <g transform="rotate(-0.0)">
      <text x="0.000" y="0.000" font-family="Helvetica" text-anchor="end" font-size="12pt" fill="#000000" >80</text>
    </g>
  </g>
  <g transform="translate(94.463,107.350)">
    <g transform="rotate(-0.0)">
      <text x="0.000" y="0.000" font-family="Helvetica" text-anchor="end" font-size="12pt" fill="#000000" >90</text>
    </g>
  </g>
  <g transform="translate(94.463,54.375)">
    <g transform="rotate(-0.0)">
      <text x="0.000" y="0.000" font-family="Helvetica" text-anchor="end" font-size="12pt" fill="#000000" >100</text>
    </g>
  </g>
      <polyline fill="none" stroke="#000000" stroke-width="0.5pt" stroke-dasharray="none" points="107.250,578.500 107.250,573.202 "/>
      <polyline fill="none" stroke="#000000" stroke-width="0.5pt" stroke-dasharray="none" points="107.250,578.500 107.250,578.500 "/>
    </g>
  </g>
  <g id ="ID000011">
  <clipPath id="ID000012">
    <rect x="405.625" y="49.375" width="178.750" height="71.875"/>
  </clipPath>
      <polygon fill="#ffffff" fill-opacity="1.00" stroke="none" stroke-width="0.5pt" stroke-opacity="1.00" stroke-dasharray="none" points="405.625,121.250 584.375,121.250 584.375,49.375 405.625,49.375 "/>
      <polygon fill="#ffffff" fill-opacity="1.00" stroke="none" stroke-width="0.5pt" stroke-opacity="1.00" stroke-dasharray="none" points="405.625,49.375 584.375,49.375 584.375,49.375 405.625,49.375 "/>
      <polygon fill="#ffffff" fill-opacity="1.00" stroke="none" stroke-width="0.5pt" stroke-opacity="1.00" stroke-dasharray="none" points="405.625,121.250 405.625,121.250 405.625,49.375 405.625,49.375 "/>
    <g>
<g id="ID000013" >
  <g transform="translate(455.898,66.979)">
    <g transform="rotate(-0.0)">
      <text x="0.000" y="0.000" font-family="Helvetica" text-anchor="start" font-size="12pt" fill="#000000" >Det</text>
    </g>
  </g>
</g>
<g id="ID000014" clip-path="url(#ID000012)" >
      <polyline fill="none" stroke="#0000ff" stroke-width="0.5pt" stroke-dasharray="none" points="413.125,60.000 450.625,60.000 "/>
<g>
</g>
</g>
<g id="ID000015" clip-path="url(#ID000012)" >
<g>
</g>
</g>
<g id="ID000016" >
  <g transform="translate(455.898,83.891)">
    <g transform="rotate(-0.0)">
      <text x="0.000" y="0.000" font-family="Helvetica" text-anchor="start" font-size="12pt" fill="#000000" >Large Growth</text>
    </g>
  </g>
</g>
<g id="ID000017" clip-path="url(#ID000012)" >
      <polyline fill="none" stroke="#000000" stroke-width="0.5pt" stroke-dasharray="8.0,2.0" points="413.125,76.875 450.625,76.875 "/>
<g>
</g>
</g>
<g id="ID000018" clip-path="url(#ID000012)" >
<g>
</g>
</g>
<g id="ID000019" >
  <g transform="translate(455.898,100.803)">
    <g transform="rotate(-0.0)">
      <text x="0.000" y="0.000" font-family="Helvetica" text-anchor="start" font-size="12pt" fill="#000000" >Large Measurement</text>
    </g>
  </g>
</g>
<g id="ID000020" clip-path="url(#ID000012)" >
      <polyline fill="none" stroke="#00ff00" stroke-width="0.5pt" stroke-dasharray="none" points="413.125,93.750 450.625,93.750 "/>
<g>
</g>
</g>
<g id="ID000021" clip-path="url(#ID000012)" >
<g>
<circle cx="431.875" cy="93.750" r="1.000" fill="#00ff00" stroke="none" stroke-width="0.5pt" />
</g>
</g>
<g id="ID000022" >
  <g transform="translate(455.898,117.714)">
    <g transform="rotate(-0.0)">
      <text x="0.000" y="0.000" font-family="Helvetica" text-anchor="start" font-size="12pt" fill="#000000" >Large  Implementation</text>
    </g>
  </g>
</g>
<g id="ID000023" clip-path="url(#ID000012)" >
<g>
</g>
</g>
<g id="ID000024" clip-path="url(#ID000012)" >
<g>
<circle cx="431.875" cy="110.625" r="1.000" fill="#ff0000" stroke="none" stroke-width="0.5pt" />
</g>
</g>
<g id="ID000025" >
</g>
<g id="ID000026" >
</g>
<g id="ID000027" >
</g>
    </g>
    <g>
      <polyline fill="none" stroke="#000000" stroke-width="0.5pt" stroke-dasharray="none" points="405.625,121.250 584.375,121.250 "/>
      <polyline fill="none" stroke="#000000" stroke-width="0.5pt" stroke-dasharray="none" points="405.625,49.375 584.375,49.375 "/>
      <polyline fill="none" stroke="#000000" stroke-width="0.5pt" stroke-dasharray="none" points="405.625,121.250 405.625,49.375 "/>
      <polyline fill="none" stroke="#000000" stroke-width="0.5pt" stroke-dasharray="none" points="584.375,121.250 584.375,49.375 "/>
      <polyline fill="none" stroke="#000000" stroke-width="0.5pt" stroke-dasharray="none" points="405.625,121.250 405.625,120.531 "/>
      <polyline fill="none" stroke="#000000" stroke-width="0.5pt" stroke-dasharray="none" points="405.625,121.250 405.625,121.250 "/>
    </g>
  </g>
  </g>
</svg>
